<svg width="63" height="62" viewBox="0 0 63 62" fill="none" xmlns="http://www.w3.org/2000/svg">
<path d="M18.4708 46.5003C15.2475 46.5003 12.1562 45.2756 9.87703 43.0955C7.59783 40.9153 6.31738 37.9585 6.31738 34.8753C6.31738 31.7922 7.59783 28.8353 9.87703 26.6552C12.1562 24.4751 15.2475 23.2503 18.4708 23.2503V23.2503C19.2321 19.8589 21.4591 16.8785 24.662 14.9649C26.2479 14.0173 28.0256 13.3602 29.8937 13.031C31.7618 12.7018 33.6836 12.7069 35.5495 13.0462C37.4154 13.3854 39.1887 14.0521 40.7683 15.0082C42.3479 15.9642 43.7028 17.1909 44.7556 18.6182C45.8084 20.0456 46.5386 21.6455 46.9044 23.3268C47.2701 25.0081 47.2644 26.7377 46.8875 28.417H49.4708C51.8688 28.417 54.1686 29.3696 55.8642 31.0653C57.5599 32.7609 58.5125 35.0607 58.5125 37.4587C58.5125 39.8567 57.5599 42.1565 55.8642 43.8521C54.1686 45.5477 51.8688 46.5003 49.4708 46.5003H46.8875" stroke="#C8C8C8" stroke-width="3" stroke-linecap="round" stroke-linejoin="round"/>
<path d="M23.6387 38.75L31.3887 31L39.1387 38.75" stroke="#C8C8C8" stroke-width="3" stroke-linecap="round" stroke-linejoin="round"/>
<path d="M31.3887 31V54.25" stroke="#C8C8C8" stroke-width="3" stroke-linecap="round" stroke-linejoin="round"/>
</svg>
