<svg width="25" height="24" viewBox="0 0 25 24" fill="none" xmlns="http://www.w3.org/2000/svg">
<path d="M7.38814 18.0002C6.14042 18.0002 4.9438 17.5261 4.06152 16.6822C3.17925 15.8383 2.68359 14.6937 2.68359 13.5002C2.68359 12.3067 3.17925 11.1621 4.06152 10.3182C4.9438 9.4743 6.14042 9.0002 7.38814 9.0002C7.68282 7.68737 8.5449 6.53368 9.78473 5.79291C10.3986 5.42612 11.0868 5.17174 11.8099 5.04431C12.533 4.91687 13.277 4.91887 13.9993 5.0502C14.7215 5.18152 15.408 5.43959 16.0194 5.80968C16.6309 6.17976 17.1554 6.65461 17.5629 7.20712C17.9704 7.75963 18.2531 8.37898 18.3947 9.02979C18.5363 9.68061 18.5341 10.3502 18.3881 11.0002H19.3881C20.3164 11.0002 21.2066 11.3689 21.863 12.0253C22.5194 12.6817 22.8881 13.5719 22.8881 14.5002C22.8881 15.4285 22.5194 16.3187 21.863 16.9751C21.2066 17.6314 20.3164 18.0002 19.3881 18.0002H18.3881" stroke="#3F95E7" stroke-width="2" stroke-linecap="round" stroke-linejoin="round"/>
<path d="M9.38867 15L12.3887 12L15.3887 15" stroke="#3F95E7" stroke-width="2" stroke-linecap="round" stroke-linejoin="round"/>
<path d="M12.3887 12V21" stroke="#3F95E7" stroke-width="2" stroke-linecap="round" stroke-linejoin="round"/>
</svg>
