<svg width="18" height="18" viewBox="0 0 18 18" fill="none" xmlns="http://www.w3.org/2000/svg">
<path d="M9 10.4999C10.2426 10.4999 11.25 9.49258 11.25 8.24994C11.25 7.0073 10.2426 5.99994 9 5.99994C7.75736 5.99994 6.75 7.0073 6.75 8.24994C6.75 9.49258 7.75736 10.4999 9 10.4999Z" stroke="#3F95E7" stroke-width="1.5" stroke-linecap="round" stroke-linejoin="round"/>
<path d="M13.2428 12.4928L10.0605 15.6751C9.92133 15.8144 9.75608 15.9249 9.57417 16.0003C9.39227 16.0757 9.19729 16.1145 9.00038 16.1145C8.80347 16.1145 8.60849 16.0757 8.42658 16.0003C8.24468 15.9249 8.07942 15.8144 7.94025 15.6751L4.75725 12.4928C3.91817 11.6537 3.34675 10.5846 3.11527 9.42073C2.88378 8.25686 3.00262 7.05047 3.45676 5.95413C3.91089 4.85779 4.67993 3.92074 5.66661 3.26147C6.6533 2.60219 7.81333 2.25031 9 2.25031C10.1867 2.25031 11.3467 2.60219 12.3334 3.26147C13.3201 3.92074 14.0891 4.85779 14.5433 5.95413C14.9974 7.05047 15.1162 8.25686 14.8847 9.42073C14.6533 10.5846 14.0818 11.6537 13.2428 12.4928V12.4928Z" stroke="#3F95E7" stroke-width="1.5" stroke-linecap="round" stroke-linejoin="round"/>
</svg>
