<svg width="18" height="18" viewBox="0 0 18 18" fill="none" xmlns="http://www.w3.org/2000/svg">
<g clip-path="url(#clip0)">
<path d="M12.375 18.0028H0.375C0.165 18.0028 0 17.8378 0 17.6278C0 17.4178 0.165 17.2528 0.375 17.2528H12.375C12.5625 17.2528 13.5 17.1853 13.5 16.1278C13.5 15.0703 12.5625 15.0028 12.375 15.0028H3.375C2.73 15.0028 1.5 14.6128 1.5 13.1278C1.5 11.6428 2.73 11.2528 3.375 11.2528H6C6.21 11.2528 6.375 11.4178 6.375 11.6278C6.375 11.8378 6.21 12.0028 6 12.0028H3.375C3.1875 12.0028 2.25 12.0703 2.25 13.1278C2.25 14.1853 3.1875 14.2528 3.375 14.2528H12.375C13.02 14.2528 14.25 14.6428 14.25 16.1278C14.25 17.6128 13.02 18.0028 12.375 18.0028Z" fill="#3F95E7"/>
<path d="M14.0097 3.99268C12.6897 2.68018 10.5522 2.68018 9.23969 3.99268C8.08469 5.14768 6.77219 10.3602 6.76469 10.4127C6.74219 10.5027 6.76469 10.5927 6.80969 10.6677L10.6197 6.85768C10.4172 6.43768 10.4922 5.92768 10.8372 5.58268C11.2722 5.14768 11.9922 5.14018 12.4272 5.58268C12.8697 6.02518 12.8697 6.73768 12.4272 7.17268C12.0822 7.51768 11.5647 7.58518 11.1522 7.39018L7.34219 11.2002C7.42469 11.2452 7.50719 11.2602 7.59719 11.2452C7.64969 11.2302 12.8547 9.92517 14.0172 8.77017C15.3297 7.45017 15.3297 5.30518 14.0097 3.99268Z" fill="#3F95E7"/>
<path d="M18.002 3.4228C18.017 3.3103 17.9795 3.1978 17.897 3.1153L14.897 0.115297C14.807 0.032797 14.6945 -0.012203 14.582 0.00279703C14.4695 0.017797 14.3645 0.085297 14.3045 0.182797L13.1795 2.0578C13.0895 2.2078 13.112 2.3953 13.2395 2.5153L15.4895 4.7653C15.6095 4.8853 15.797 4.9078 15.947 4.8253L17.822 3.7003C17.9195 3.6403 17.987 3.5353 18.002 3.4228Z" fill="#3F95E7"/>
</g>
<defs>
<clipPath id="clip0">
<rect width="18" height="18" fill="white"/>
</clipPath>
</defs>
</svg>
